<?xml version="1.0" encoding="utf-8"?>
<svg xmlns="http://www.w3.org/2000/svg" xmlns:xlink="http://www.w3.org/1999/xlink" style="margin: auto; background: rgb(241, 242, 243); display: block; shape-rendering: auto;" width="211px" height="211px" viewBox="0 0 100 100" preserveAspectRatio="xMidYMid">
<g transform="translate(50 50)">
<g transform="rotate(32.8619)">
<animateTransform attributeName="transform" type="rotate" values="0;45" keyTimes="0;1" dur="0.5s" repeatCount="indefinite"></animateTransform><path d="M28.01338965566288 -7.500000000000001 L34.01338965566288 -7.500000000000001 L34.01338965566288 7.500000000000001 L28.01338965566288 7.500000000000001 A29 29 0 0 1 25.111758648439412 14.5051569306412 L25.111758648439412 14.5051569306412 L29.354399335558696 18.747797617760483 L18.747797617760483 29.354399335558693 L14.5051569306412 25.11175864843941 A29 29 0 0 1 7.500000000000001 28.01338965566288 L7.500000000000001 28.01338965566288 L7.500000000000001 34.01338965566288 L-7.499999999999997 34.01338965566288 L-7.499999999999997 28.01338965566288 A29 29 0 0 1 -14.505156930641194 25.111758648439416 L-14.505156930641194 25.111758648439416 L-18.74779761776048 29.354399335558703 L-29.354399335558696 18.747797617760483 L-25.111758648439412 14.505156930641197 A29 29 0 0 1 -28.013389655662877 7.500000000000009 L-28.013389655662877 7.500000000000009 L-34.01338965566288 7.50000000000001 L-34.01338965566288 -7.500000000000001 L-28.01338965566288 -7.500000000000002 A29 29 0 0 1 -25.111758648439416 -14.50515693064119 L-25.111758648439416 -14.50515693064119 L-29.354399335558703 -18.747797617760476 L-18.747797617760483 -29.354399335558696 L-14.5051569306412 -25.111758648439412 A29 29 0 0 1 -7.50000000000001 -28.013389655662877 L-7.50000000000001 -28.013389655662877 L-7.500000000000011 -34.01338965566288 L7.499999999999998 -34.01338965566288 L7.499999999999999 -28.01338965566288 A29 29 0 0 1 14.50515693064119 -25.11175864843942 L14.50515693064119 -25.11175864843942 L18.747797617760476 -29.354399335558703 L29.354399335558696 -18.747797617760483 L25.111758648439412 -14.5051569306412 A29 29 0 0 1 28.013389655662877 -7.5000000000000115 M0 -18A18 18 0 1 0 0 18 A18 18 0 1 0 0 -18" fill="#673216"></path></g></g>
<!-- [ldio] generated by https://loading.io/ --></svg>